<?xml version="1.0" encoding="UTF-8" standalone="no"?>
<svg
        aria-hidden="true"
        focusable="false"
        data-prefix="fas"
        data-icon="shoe-prints"
        class="svg-inline--fa fa-shoe-prints fa-w-20"
        role="img"
        viewBox="0 0 640 512"
        version="1.1"
        id="svg826"
        sodipodi:docname="shoe-prints-solid.svg"
        inkscape:version="1.1 (c4e8f9e, 2021-05-24)"
        xmlns:inkscape="http://www.inkscape.org/namespaces/inkscape"
        xmlns:sodipodi="http://sodipodi.sourceforge.net/DTD/sodipodi-0.dtd"
        xmlns="http://www.w3.org/2000/svg"
>
  <defs
     id="defs830" />
  <sodipodi:namedview
     id="namedview828"
     pagecolor="#ffffff"
     bordercolor="#666666"
     borderopacity="1.0"
     inkscape:pageshadow="2"
     inkscape:pageopacity="0.0"
     inkscape:pagecheckerboard="0"
     showgrid="false"
     inkscape:zoom="1.7050781"
     inkscape:cx="319.92669"
     inkscape:cy="256"
     inkscape:window-width="1887"
     inkscape:window-height="1339"
     inkscape:window-x="85"
     inkscape:window-y="25"
     inkscape:window-maximized="0"
     inkscape:current-layer="svg826" />
  <path
     fill="currentColor"
     d="M192 160h32V32h-32c-35.35 0-64 28.65-64 64s28.65 64 64 64zM0 416c0 35.35 28.65 64 64 64h32V352H64c-35.35 0-64 28.65-64 64zm337.46-128c-34.91 0-76.16 13.12-104.73 32-24.79 16.38-44.52 32-104.73 32v128l57.53 15.97c26.21 7.28 53.01 13.12 80.31 15.05 32.69 2.31 65.6.67 97.58-6.2C472.9 481.3 512 429.22 512 384c0-64-84.18-96-174.54-96zM491.42 7.19C459.44.32 426.53-1.33 393.84.99c-27.3 1.93-54.1 7.77-80.31 15.04L256 32v128c60.2 0 79.94 15.62 104.73 32 28.57 18.88 69.82 32 104.73 32C555.82 224 640 192 640 128c0-45.22-39.1-97.3-148.58-120.81z"
     id="path824"
     style="stroke:#b4b4b4;stroke-opacity:1;stroke-width:1.0015748;stroke-miterlimit:4;stroke-dasharray:none;fill:#b4b4b4;fill-opacity:1"
     inkscape:export-filename="/Users/hafner/path825.png"
     inkscape:export-xdpi="3.5899999"
     inkscape:export-ydpi="3.5899999" />
</svg>
